<?xml version="1.0" encoding="UTF-8"?> <svg xmlns="http://www.w3.org/2000/svg" xmlns:xlink="http://www.w3.org/1999/xlink" version="1.1" id="Layer_1" x="0px" y="0px" viewBox="0 0 500 201" style="enable-background:new 0 0 500 201;" xml:space="preserve"> <style type="text/css"> .st0{fill:#009CE0;} .st1{fill:url(#SVGID_1_);} .st2{fill:#0063A3;} .st3{fill:url(#SVGID_00000030459921824402503400000012123436249644208542_);} .st4{fill:url(#SVGID_00000054981733555315850460000003612971174745731214_);} .st5{fill:url(#SVGID_00000109716153016827603590000003254913762229872821_);} .st6{fill:url(#SVGID_00000111894425088972992770000002579518147302986394_);} .st7{fill:url(#SVGID_00000180364473973182671730000002349839327217660075_);} .st8{fill:url(#SVGID_00000119085952724975946920000017648530023916837542_);} .st9{fill:url(#SVGID_00000063612413979777994640000014765037957539800721_);} .st10{fill:url(#SVGID_00000165942138470748638050000011783185956392475043_);} .st11{fill:url(#SVGID_00000039824141441496061700000011722242325646976918_);} .st12{fill:url(#SVGID_00000124126379192613048520000005441133901745930641_);} .st13{fill:url(#SVGID_00000160877713835530231730000008276504817913568642_);} </style> <g> <g> <g> <path class="st0" d="M20.1,125.5l0.1-0.4l0.3-0.2c3.1-2.4,8.2-8.5,15.2-18.2c12.7-17.6,24.5-37.3,34-56.8 c5.2-10.7,8.2-18.1,8.8-22l0.1-0.4l0.3-0.2c1.4-1.2,3.1-1.8,5-1.8c1.4,0,2.8,0.4,4.2,1.1c2.9,1.9,4.3,5.2,3.7,8.4l-0.1,0.4 l-0.3,0.2C88.2,38,83,44.1,76.1,53.7c-12.7,17.6-24.5,37.3-34,56.8c-5.2,10.7-8.2,18.1-8.8,22l-0.1,0.4l-0.3,0.2 c-1.4,1.2-3.1,1.8-5,1.8c-1.4,0-2.8-0.4-4.2-1.1C20.9,132,19.5,128.7,20.1,125.5z"></path> <path class="st0" d="M158.4,125.5l-0.1-0.4l-0.3-0.2c-3.1-2.4-8.2-8.5-15.2-18.2c-12.7-17.6-24.5-37.3-34-56.8 c-5.2-10.7-8.2-18.1-8.8-22l-0.1-0.4l-0.3-0.2c-1.4-1.2-3.1-1.8-5-1.8c-1.4,0-2.8,0.4-4.2,1.1c-2.9,1.9-4.3,5.2-3.7,8.4l0.1,0.4 l0.3,0.2c3.1,2.4,8.2,8.5,15.2,18.2c12.7,17.6,24.5,37.3,34,56.8c5.2,10.7,8.2,18.1,8.8,22l0.1,0.4l0.3,0.2 c1.4,1.2,3.1,1.8,5,1.8c1.4,0,2.8-0.4,4.2-1.1C157.6,132,159,128.7,158.4,125.5z"></path> </g> <linearGradient id="SVGID_1_" gradientUnits="userSpaceOnUse" x1="1828.6897" y1="406.4779" x2="1828.6897" y2="352.8484" gradientTransform="matrix(-1 0 0 -1 1917.9318 445.4464)"> <stop offset="9.264332e-02" style="stop-color:#009CE0"></stop> <stop offset="0.3809" style="stop-color:#0081C3"></stop> <stop offset="0.6751" style="stop-color:#006BAC"></stop> <stop offset="0.8592" style="stop-color:#0063A3"></stop> </linearGradient> <path class="st1" d="M85.6,46.1c1.8,9.5,1.8,19.6-0.1,29.1c-1.3,6.4-2.6,9-3.6,10L81.2,86l0.6,0.7c1.4,1.7,4.6,2.4,7.3,2.5 c2.6,0,5.9-0.7,7.3-2.4l0.6-0.7l-0.6-0.7c-0.9-1-2.3-3.6-3.5-10c-1.8-9.5-1.8-19.6,0.1-29.1c1.3-6.4,2.6-9,3.6-10l0.6-0.7 l-0.6-0.7c-1.4-1.7-4.6-2.4-7.3-2.5h0h0c-2.6,0-5.9,0.7-7.3,2.4l-0.6,0.7l0.6,0.7C83,37.2,84.4,39.7,85.6,46.1z"></path> <path class="st2" d="M20.1,75.2l0.1,0.4l0.3,0.2c3.1,2.4,8.2,8.5,15.2,18.2c12.7,17.6,24.5,37.3,34,56.8c5.2,10.7,8.2,18.1,8.8,22 l0.1,0.4l0.3,0.2c1.4,1.2,3.1,1.8,5,1.8c1.4,0,2.8-0.4,4.2-1.1c2.9-1.9,4.3-5.2,3.7-8.4l-0.1-0.4l-0.3-0.2 c-3.1-2.4-8.2-8.5-15.2-18.2c-12.7-17.6-24.5-37.3-34-56.8c-5.2-10.7-8.2-18.1-8.8-22l-0.1-0.4l-0.3-0.2c-1.4-1.2-3.1-1.8-5-1.8 c-1.4,0-2.8,0.4-4.2,1.1C20.9,68.7,19.5,72,20.1,75.2z"></path> <path class="st2" d="M158.4,75.2l-0.1,0.4l-0.3,0.2c-3.1,2.4-8.2,8.5-15.2,18.2c-12.7,17.6-24.5,37.3-34,56.8 c-5.2,10.7-8.2,18.1-8.8,22l-0.1,0.4l-0.3,0.2c-1.4,1.2-3.1,1.8-5,1.8c-1.4,0-2.8-0.4-4.2-1.1c-2.9-1.9-4.3-5.2-3.7-8.4l0.1-0.4 l0.3-0.2c3.1-2.4,8.2-8.5,15.2-18.2c12.7-17.6,24.5-37.3,34-56.8c5.2-10.7,8.2-18.1,8.8-22l0.1-0.4l0.3-0.2c1.4-1.2,3.1-1.8,5-1.8 c1.4,0,2.8,0.4,4.2,1.1C157.6,68.7,159,72,158.4,75.2z"></path> <linearGradient id="SVGID_00000135663633707537025620000005589166687585948846_" gradientUnits="userSpaceOnUse" x1="1828.6897" y1="395.0816" x2="1828.6897" y2="341.4522" gradientTransform="matrix(-1 0 0 -1 1917.9318 513.6644)"> <stop offset="6.510337e-02" style="stop-color:#0063A3"></stop> <stop offset="0.8569" style="stop-color:#0063A3"></stop> </linearGradient> <path style="fill:url(#SVGID_00000135663633707537025620000005589166687585948846_);" d="M85.6,125.8c1.8,9.5,1.8,19.6-0.1,29.1 c-1.3,6.4-2.6,9-3.6,10l-0.6,0.7l0.6,0.7c1.4,1.7,4.6,2.4,7.3,2.5c2.6,0,5.9-0.7,7.3-2.4l0.6-0.7l-0.6-0.7c-0.9-1-2.3-3.6-3.5-10 c-1.8-9.5-1.8-19.6,0.1-29.1c1.3-6.4,2.6-9,3.6-10l0.6-0.7l-0.6-0.7c-1.4-1.7-4.6-2.4-7.3-2.5h0h0c-2.6,0-5.9,0.7-7.3,2.4 l-0.6,0.7l0.6,0.7C83,116.8,84.4,119.4,85.6,125.8z"></path> <linearGradient id="SVGID_00000036967532599752222490000008410111581550887839_" gradientUnits="userSpaceOnUse" x1="3395.2322" y1="578.071" x2="3395.2322" y2="524.4415" gradientTransform="matrix(-0.514 0.8578 -0.8547 -0.5121 2275.3076 -2466.3059)"> <stop offset="0" style="stop-color:#009CE0"></stop> <stop offset="0.4396" style="stop-color:#0080C2"></stop> <stop offset="0.844" style="stop-color:#0063A3"></stop> </linearGradient> <path style="fill:url(#SVGID_00000036967532599752222490000008410111581550887839_);" d="M40.4,156.9c9.1,3.3,17.7,8.5,24.8,15 c4.8,4.4,6.3,6.9,6.7,8.2l0.3,0.9l0.9-0.1c2.2-0.3,4.5-2.7,5.9-5c1.3-2.3,2.5-5.4,1.7-7.5l-0.3-0.9l-0.9,0.2 c-1.4,0.2-4.3,0.1-10.4-2.2c-9.1-3.3-17.7-8.5-24.8-15c-4.8-4.4-6.3-6.9-6.7-8.2l-0.3-0.9l-0.9,0.1c-2.2,0.3-4.5,2.7-5.9,5l0,0 l0,0c-1.3,2.3-2.5,5.4-1.7,7.5l0.3,0.9l0.9-0.2C31.4,154.5,34.3,154.7,40.4,156.9z"></path> <linearGradient id="SVGID_00000180353640053256702290000010583176063385864102_" gradientUnits="userSpaceOnUse" x1="4005.4849" y1="1600.2811" x2="4005.4849" y2="1546.6517" gradientTransform="matrix(0.514 0.8578 0.8547 -0.5121 -3284.145 -2466.3059)"> <stop offset="0" style="stop-color:#009CE0"></stop> <stop offset="0.4396" style="stop-color:#0080C2"></stop> <stop offset="0.844" style="stop-color:#0063A3"></stop> </linearGradient> <path style="fill:url(#SVGID_00000180353640053256702290000010583176063385864102_);" d="M138.1,156.9c-9.1,3.3-17.7,8.5-24.8,15 c-4.8,4.4-6.3,6.9-6.7,8.2l-0.3,0.9l-0.9-0.1c-2.2-0.3-4.5-2.7-5.9-5c-1.3-2.3-2.5-5.4-1.7-7.5l0.3-0.9l0.9,0.2 c1.4,0.2,4.3,0.1,10.4-2.2c9.1-3.3,17.7-8.5,24.8-15c4.8-4.4,6.3-6.9,6.7-8.2l0.3-0.9l0.9,0.1c2.2,0.3,4.5,2.7,5.9,5l0,0l0,0 c1.3,2.3,2.5,5.4,1.7,7.5l-0.3,0.9l-0.9-0.2C147.1,154.5,144.1,154.7,138.1,156.9z"></path> <g> <linearGradient id="SVGID_00000013883038096660860230000007309928492584079275_" gradientUnits="userSpaceOnUse" x1="884.1127" y1="2125.313" x2="884.1127" y2="2071.6836" gradientTransform="matrix(-0.5351 -0.8448 -0.858 0.5435 2332.7981 -273.5883)"> <stop offset="0" style="stop-color:#009CE0"></stop> <stop offset="0.4411" style="stop-color:#0080C2"></stop> <stop offset="0.8468" style="stop-color:#0063A3"></stop> </linearGradient> <path style="fill:url(#SVGID_00000013883038096660860230000007309928492584079275_);" d="M40.5,127.5c9.2-3.7,17.8-9.2,24.9-16 c4.8-4.5,6.3-7.1,6.7-8.4l0.3-0.9l1,0.1c2.2,0.2,4.6,2.6,6,4.8c1.4,2.2,2.6,5.4,1.8,7.5l-0.3,0.9l-0.9-0.1 c-1.4-0.2-4.3,0.1-10.5,2.5c-9.2,3.7-17.8,9.2-24.9,16c-4.8,4.5-6.3,7.1-6.7,8.4l-0.3,0.9l-1-0.1c-2.2-0.2-4.6-2.6-6-4.8l0,0l0,0 c-1.4-2.2-2.6-5.4-1.8-7.5l0.3-0.9l0.9,0.1C31.4,130.3,34.3,130,40.5,127.5z"></path> <linearGradient id="SVGID_00000001623525182046835180000012391118540124151974_" gradientUnits="userSpaceOnUse" x1="1519.4188" y1="3112.8862" x2="1519.4188" y2="3059.2568" gradientTransform="matrix(0.5351 -0.8448 0.858 0.5435 -3341.5662 -273.5883)"> <stop offset="0" style="stop-color:#009CE0"></stop> <stop offset="0.4396" style="stop-color:#0080C2"></stop> <stop offset="0.844" style="stop-color:#0063A3"></stop> </linearGradient> <path style="fill:url(#SVGID_00000001623525182046835180000012391118540124151974_);" d="M138,127.5c-9.2-3.7-17.8-9.2-24.9-16 c-4.8-4.5-6.3-7.1-6.7-8.4l-0.3-0.9l-1,0.1c-2.2,0.2-4.6,2.6-6,4.8c-1.4,2.2-2.6,5.4-1.8,7.5l0.3,0.9l0.9-0.1 c1.4-0.2,4.3,0.1,10.5,2.5c9.2,3.7,17.8,9.2,24.9,16c4.8,4.5,6.3,7.1,6.7,8.4l0.3,0.9l1-0.1c2.2-0.2,4.6-2.6,6-4.8l0,0l0,0 c1.4-2.2,2.6-5.4,1.8-7.5l-0.3-0.9l-0.9,0.1C147.1,130.3,144.2,130,138,127.5z"></path> </g> <linearGradient id="SVGID_00000171692480609870084240000007639569381322879659_" gradientUnits="userSpaceOnUse" x1="3356.3191" y1="583.4031" x2="3356.3191" y2="529.7737" gradientTransform="matrix(-0.5351 0.8448 -0.858 -0.5435 2332.7981 -2451.9819)"> <stop offset="0" style="stop-color:#0063A3"></stop> <stop offset="0.844" style="stop-color:#0063A3"></stop> </linearGradient> <path style="fill:url(#SVGID_00000171692480609870084240000007639569381322879659_);" d="M40.5,73.3c9.2,3.7,17.8,9.2,24.9,16 c4.8,4.5,6.3,7.1,6.7,8.4l0.3,0.9l1-0.1c2.2-0.2,4.6-2.6,6-4.8c1.4-2.2,2.6-5.4,1.8-7.5l-0.3-0.9l-0.9,0.1 c-1.4,0.2-4.3-0.1-10.5-2.5c-9.2-3.7-17.8-9.2-24.9-16c-4.8-4.5-6.3-7.1-6.7-8.4l-0.3-0.9l-1,0.1c-2.2,0.2-4.6,2.6-6,4.8l0,0l0,0 c-1.4,2.2-2.6,5.4-1.8,7.5l0.3,0.9l0.9-0.1C31.4,70.6,34.3,70.9,40.5,73.3z"></path> <linearGradient id="SVGID_00000072998378612391467950000001897893736333147534_" gradientUnits="userSpaceOnUse" x1="3991.6252" y1="1570.9763" x2="3991.6252" y2="1517.3468" gradientTransform="matrix(0.5351 0.8448 0.858 -0.5435 -3341.5662 -2451.9819)"> <stop offset="0" style="stop-color:#0063A3"></stop> <stop offset="0.844" style="stop-color:#0063A3"></stop> </linearGradient> <path style="fill:url(#SVGID_00000072998378612391467950000001897893736333147534_);" d="M138,73.3c-9.2,3.7-17.8,9.2-24.9,16 c-4.8,4.5-6.3,7.1-6.7,8.4l-0.3,0.9l-1-0.1c-2.2-0.2-4.6-2.6-6-4.8c-1.4-2.2-2.6-5.4-1.8-7.5l0.3-0.9l0.9,0.1 c1.4,0.2,4.3-0.1,10.5-2.5c9.2-3.7,17.8-9.2,24.9-16c4.8-4.5,6.3-7.1,6.7-8.4l0.3-0.9l1,0.1c2.2,0.2,4.6,2.6,6,4.8l0,0l0,0 c1.4,2.2,2.6,5.4,1.8,7.5l-0.3,0.9l-0.9-0.1C147.1,70.6,144.2,70.9,138,73.3z"></path> <linearGradient id="SVGID_00000045587015384775857420000005079024283178742932_" gradientUnits="userSpaceOnUse" x1="948.4144" y1="2049.4915" x2="948.4144" y2="1995.8619" gradientTransform="matrix(-0.514 -0.8578 -0.8547 0.5121 2275.3076 -185.0573)"> <stop offset="0" style="stop-color:#0063A3"></stop> <stop offset="0.2697" style="stop-color:#0072B3"></stop> <stop offset="0.7955" style="stop-color:#0099DD"></stop> <stop offset="0.8315" style="stop-color:#009CE0"></stop> </linearGradient> <path style="fill:url(#SVGID_00000045587015384775857420000005079024283178742932_);" d="M40.4,44.1c9.1-3.3,17.7-8.5,24.8-15 c4.8-4.4,6.3-6.9,6.7-8.2l0.3-0.9l0.9,0.1c2.2,0.3,4.5,2.7,5.9,5c1.3,2.3,2.5,5.4,1.7,7.5l-0.3,0.9l-0.9-0.2 c-1.4-0.2-4.3-0.1-10.4,2.2c-9.1,3.3-17.7,8.5-24.8,15c-4.8,4.4-6.3,6.9-6.7,8.2l-0.3,0.9l-0.9-0.1c-2.2-0.3-4.5-2.7-5.9-5l0,0 l0,0c-1.3-2.3-2.5-5.4-1.7-7.5l0.3-0.9l0.9,0.2C31.4,46.5,34.3,46.4,40.4,44.1z"></path> <linearGradient id="SVGID_00000140709759035443178880000008684227758650243245_" gradientUnits="userSpaceOnUse" x1="1558.6669" y1="3071.7014" x2="1558.6669" y2="3018.072" gradientTransform="matrix(0.514 -0.8578 0.8547 0.5121 -3284.145 -185.0573)"> <stop offset="0" style="stop-color:#0063A3"></stop> <stop offset="0.4396" style="stop-color:#007FC1"></stop> <stop offset="0.844" style="stop-color:#009CE0"></stop> </linearGradient> <path style="fill:url(#SVGID_00000140709759035443178880000008684227758650243245_);" d="M138.1,44.1c-9.1-3.3-17.7-8.5-24.8-15 c-4.8-4.4-6.3-6.9-6.7-8.2l-0.3-0.9l-0.9,0.1c-2.2,0.3-4.5,2.7-5.9,5c-1.3,2.3-2.5,5.4-1.7,7.5l0.3,0.9l0.9-0.2 c1.4-0.2,4.3-0.1,10.4,2.2c9.1,3.3,17.7,8.5,24.8,15c4.8,4.4,6.3,6.9,6.7,8.2l0.3,0.9l0.9-0.1c2.2-0.3,4.5-2.7,5.9-5l0,0l0,0 c1.3-2.3,2.5-5.4,1.7-7.5l-0.3-0.9l-0.9,0.2C147.1,46.5,144.1,46.4,138.1,44.1z"></path> <circle class="st0" cx="158.2" cy="140.5" r="17.5"></circle> <circle class="st2" cx="89.2" cy="180.7" r="17.5"></circle> <circle class="st0" cx="89.2" cy="20.3" r="17.5"></circle> <circle class="st0" cx="20.3" cy="140.5" r="17.5"></circle> <circle class="st2" cx="20.3" cy="60.5" r="17.5"></circle> <circle class="st2" cx="158.2" cy="60.5" r="17.5"></circle> <circle class="st2" cx="89.2" cy="100.5" r="17.5"></circle> <linearGradient id="SVGID_00000089532814543440969070000011128217689150672016_" gradientUnits="userSpaceOnUse" x1="1892.5767" y1="443.4573" x2="1892.5767" y2="389.8279" gradientTransform="matrix(-1 0 0 -1 2050.9592 522.4004)"> <stop offset="0" style="stop-color:#0063A3"></stop> <stop offset="0.4396" style="stop-color:#007FC1"></stop> <stop offset="0.844" style="stop-color:#009CE0"></stop> </linearGradient> <path style="fill:url(#SVGID_00000089532814543440969070000011128217689150672016_);" d="M154.7,86.1c1.8,9.5,1.8,19.6-0.1,29.1 c-1.3,6.4-2.6,9-3.6,10l-0.6,0.7l0.6,0.7c1.4,1.7,4.6,2.4,7.3,2.5c2.6,0,5.9-0.7,7.3-2.4l0.6-0.7l-0.6-0.7c-0.9-1-2.3-3.6-3.5-10 c-1.8-9.5-1.8-19.6,0.1-29.1c1.3-6.4,2.6-9,3.6-10l0.6-0.7l-0.6-0.7c-1.4-1.7-4.6-2.4-7.3-2.5h0h0c-2.6,0-5.9,0.7-7.3,2.4 l-0.6,0.7l0.6,0.7C152.2,77.1,153.5,79.7,154.7,86.1z"></path> <linearGradient id="SVGID_00000036229796132831718500000009104058280392151742_" gradientUnits="userSpaceOnUse" x1="2030.8578" y1="443.4573" x2="2030.8578" y2="389.8279" gradientTransform="matrix(-1 0 0 -1 2050.9592 522.4004)"> <stop offset="0" style="stop-color:#0063A3"></stop> <stop offset="0.4396" style="stop-color:#007FC1"></stop> <stop offset="0.844" style="stop-color:#009CE0"></stop> </linearGradient> <path style="fill:url(#SVGID_00000036229796132831718500000009104058280392151742_);" d="M16.4,86.1c1.8,9.5,1.8,19.6-0.1,29.1 c-1.3,6.4-2.6,9-3.6,10l-0.6,0.7l0.6,0.7c1.4,1.7,4.6,2.4,7.3,2.5c2.6,0,5.9-0.7,7.3-2.4l0.6-0.7l-0.6-0.7c-0.9-1-2.3-3.6-3.5-10 c-1.8-9.5-1.8-19.6,0.1-29.1c1.3-6.4,2.6-9,3.6-10l0.6-0.7l-0.6-0.7c-1.4-1.7-4.6-2.4-7.3-2.5h0h0c-2.6,0-5.9,0.7-7.3,2.4 l-0.6,0.7l0.6,0.7C13.9,77.1,15.2,79.7,16.4,86.1z"></path> </g> <g> <path d="M208.4,75v-6.6h12v5.7c0,6.7,3,9.2,8.5,9.2c5.5,0,7.9-3.2,7.9-9.1V27h13.4v47.5c0,11.3-6.6,19.8-20.2,19.8 C216.4,94.2,208.4,87.9,208.4,75z"></path> <path d="M287,87.7h-0.2c-2.4,3.6-5.8,6.4-14,6.4c-9.7,0-16.5-5.1-16.5-14.5c0-10.4,8.5-13.8,19-15.2c7.9-1.1,11.5-1.8,11.5-5.4 c0-3.4-2.7-5.6-7.9-5.6c-5.9,0-8.8,2.1-9.1,6.7h-11.2c0.4-8.3,6.6-15.6,20.4-15.6c14.2,0,20,6.4,20,17.5V86c0,3.6,0.6,5.7,1.7,6.6 V93h-12.1C287.7,92.1,287.2,89.9,287,87.7z M287,76.3v-7.1c-2.2,1.3-5.6,2-8.8,2.8c-6.6,1.5-9.8,3-9.8,7.4c0,4.4,3,6,7.4,6 C283.1,85.3,287,80.9,287,76.3z"></path> <path d="M306.8,45.6h12.1V52h0.3c2.6-4.3,7.2-7.7,13.8-7.7c6,0,10.8,3.3,13.1,8.3h0.2c3.2-5.2,8.2-8.3,14.2-8.3 c10,0,15.6,6.5,15.6,16.8V93h-12.6V63.3c0-5.4-2.7-8.1-7.3-8.1c-5.3,0-8.5,4.1-8.5,10.3V93h-12.6V63.3c0-5.4-2.7-8.1-7.3-8.1 c-5.1,0-8.5,4.1-8.5,10.3V93h-12.6V45.6z"></path> <path d="M381.6,69.3c0-14,9.5-24.9,23.4-24.9c15.2,0,23.4,11.6,23.4,28.5h-34.4c0.9,7.3,5,11.8,12.1,11.8c4.9,0,7.8-2.2,9.1-5.8 h12.4c-1.8,8.4-9.2,15.5-21.4,15.5C390.4,94.4,381.6,83.4,381.6,69.3z M394.1,64.2h21.1c-0.4-6-4.3-10.2-10.1-10.2 C398.5,54,395.2,58,394.1,64.2z"></path> <path d="M431.8,69.3c0-14,9.5-24.9,23.4-24.9c15.2,0,23.4,11.6,23.4,28.5h-34.4c0.9,7.3,5,11.8,12.1,11.8c4.9,0,7.8-2.2,9.1-5.8 h12.4c-1.8,8.4-9.2,15.5-21.4,15.5C440.7,94.4,431.8,83.4,431.8,69.3z M444.4,64.2h21.1c-0.4-6-4.3-10.2-10.1-10.2 C448.7,54,445.5,58,444.4,64.2z"></path> <path d="M484.6,27h12.6V93h-12.6V27z"></path> <path d="M209.1,151.3c0-19.6,12.2-34.6,31.7-34.6c16.3,0,25.9,9.7,27.3,22.3h-13.3c-1.2-6.7-6.2-11-14-11c-12.2,0-18,10.2-18,23.3 c0,13.5,7,23.2,18.1,23.2c7.9,0,13.4-4.7,14.2-11.6h13.1c-0.4,5.8-2.9,11.5-7.3,15.6c-4.5,4.3-10.9,7-20,7 C222.3,185.5,209.1,171.2,209.1,151.3z"></path> <path d="M274.3,118h12.6v66.1h-12.6V118z"></path> <path d="M295.2,118h12.6v11.3h-12.6V118z M295.2,136.7h12.6v47.4h-12.6V136.7z"></path> <path d="M328.2,143.2h0.3c3.2-5.1,7.6-7.8,14-7.8c9.8,0,16.4,7.4,16.4,17.7v31h-12.6V155c0-5.1-3-8.7-8.2-8.7 c-5.5,0-9.6,4.4-9.6,10.9v26.9h-12.6v-47.4h12.3V143.2z"></path> <path d="M366.6,118h12.6v11.3h-12.6V118z M366.6,136.7h12.6v47.4h-12.6V136.7z"></path> <path d="M385,160.5c0-14.1,9.2-25,23.7-25c12.3,0,19.9,7.1,21.5,17.4h-12.3c-0.8-4.2-4.1-7.3-8.7-7.3c-7.6,0-11.5,5.8-11.5,15 c0,9,3.6,15,11.3,15c5.1,0,8.7-2.7,9.5-8h12.1c-0.8,10.1-8.7,18.1-21.3,18.1C394.3,185.5,385,174.6,385,160.5z"></path> </g> </g> </svg> 